<svg width="37" height="36" viewBox="0 0 37 36" fill="none" xmlns="http://www.w3.org/2000/svg">
<path fill-rule="evenodd" clip-rule="evenodd" d="M33.6054 7.06465C34.1671 7.9054 34.1671 9.07578 34.1671 11.4166V32.6666H35.0005C35.6908 32.6666 36.2505 33.2262 36.2505 33.9166C36.2505 34.6069 35.6908 35.1666 35.0005 35.1666H1.66714C0.976789 35.1666 0.417145 34.6069 0.417145 33.9166C0.417145 33.2262 0.976789 32.6666 1.66714 32.6666H2.50048V11.4166C2.50048 9.07578 2.50048 7.9054 3.06225 7.06465C3.30544 6.70069 3.61794 6.38818 3.98191 6.14499C4.71728 5.65363 5.70485 5.59204 7.5072 5.58433C7.50034 6.06998 7.5004 6.57746 7.50047 7.10073L7.50048 7.24989V9.33322H5.83381C5.14346 9.33322 4.58381 9.89287 4.58381 10.5832C4.58381 11.2736 5.14346 11.8332 5.83381 11.8332H7.50048V14.3332H5.83381C5.14346 14.3332 4.58381 14.8929 4.58381 15.5832C4.58381 16.2736 5.14346 16.8332 5.83381 16.8332H7.50048V19.3332H5.83381C5.14346 19.3332 4.58381 19.8929 4.58381 20.5832C4.58381 21.2736 5.14346 21.8332 5.83381 21.8332H7.50048V32.6666H10.0005V7.24989C10.0005 4.10719 10.0005 2.53584 10.9768 1.55953C11.9531 0.583221 13.5244 0.583221 16.6671 0.583221H20.0005C23.1432 0.583221 24.7145 0.583221 25.6908 1.55953C26.6671 2.53584 26.6671 4.10719 26.6671 7.24989V32.6666H29.1671V21.8332H30.8338C31.5242 21.8332 32.0838 21.2736 32.0838 20.5832C32.0838 19.8929 31.5242 19.3332 30.8338 19.3332H29.1671V16.8332H30.8338C31.5242 16.8332 32.0838 16.2736 32.0838 15.5832C32.0838 14.8929 31.5242 14.3332 30.8338 14.3332H29.1671V11.8332H30.8338C31.5242 11.8332 32.0838 11.2736 32.0838 10.5832C32.0838 9.89287 31.5242 9.33322 30.8338 9.33322H29.1671V7.24989L29.1672 7.10074C29.1672 6.57747 29.1673 6.06999 29.1604 5.58433C30.9628 5.59205 31.9503 5.65363 32.6857 6.14499C33.0497 6.38818 33.3622 6.70069 33.6054 7.06465ZM19.5838 28.9166C19.5838 28.2262 19.0242 27.6666 18.3338 27.6666C17.6435 27.6666 17.0838 28.2262 17.0838 28.9166V32.6666H19.5838V28.9166ZM13.7505 22.2499C13.7505 21.5595 14.3101 20.9999 15.0005 20.9999H21.6671C22.3575 20.9999 22.9171 21.5595 22.9171 22.2499C22.9171 22.9402 22.3575 23.4999 21.6671 23.4999H15.0005C14.3101 23.4999 13.7505 22.9402 13.7505 22.2499ZM15.0005 15.9999C14.3101 15.9999 13.7505 16.5595 13.7505 17.2499C13.7505 17.9402 14.3101 18.4999 15.0005 18.4999H21.6671C22.3575 18.4999 22.9171 17.9402 22.9171 17.2499C22.9171 16.5595 22.3575 15.9999 21.6671 15.9999H15.0005ZM14.1671 8.91656C14.1671 6.38525 16.2192 4.33322 18.7505 4.33322C21.2818 4.33322 23.3338 6.38525 23.3338 8.91656C23.3338 11.4479 21.2818 13.4999 18.7505 13.4999C16.2192 13.4999 14.1671 11.4479 14.1671 8.91656ZM16.6671 8.91656C16.6671 7.76596 17.5999 6.83322 18.7505 6.83322C19.9011 6.83322 20.8338 7.76596 20.8338 8.91656C20.8338 10.0671 19.9011 10.9999 18.7505 10.9999C17.5999 10.9999 16.6671 10.0671 16.6671 8.91656Z" fill="#1A1528"/>
</svg>
