<svg width="28" height="28" viewBox="0 0 28 28" fill="none" xmlns="http://www.w3.org/2000/svg">
<path d="M14 25.6667C20.4433 25.6667 25.6667 20.4434 25.6667 14C25.6667 7.55672 20.4433 2.33337 14 2.33337C7.55667 2.33337 2.33332 7.55672 2.33332 14C2.33332 15.8663 2.77154 17.6303 3.55069 19.1946C3.75775 19.6103 3.82667 20.0855 3.70663 20.5341L3.01175 23.1311C2.7101 24.2585 3.7415 25.2899 4.86889 24.9883L7.46594 24.2934C7.91458 24.1734 8.38973 24.2423 8.80544 24.4493C10.3697 25.2285 12.1337 25.6667 14 25.6667Z" stroke="#999999" stroke-width="1.75"/>
<path d="M9.33334 12.25H18.6667" stroke="#999999" stroke-width="1.75" stroke-linecap="round"/>
<path d="M9.33334 16.3334H15.75" stroke="#999999" stroke-width="1.75" stroke-linecap="round"/>
</svg>
