<svg width="31" height="31" viewBox="0 0 31 31" fill="none" xmlns="http://www.w3.org/2000/svg">
<path fill-rule="evenodd" clip-rule="evenodd" d="M26.8785 19.9005C31.3738 15.4052 31.3738 8.11676 26.8785 3.6214C22.3831 -0.873962 15.0947 -0.873962 10.5993 3.6214C7.61441 6.6063 6.61147 10.8226 7.5905 14.6351C7.7484 15.25 7.60817 15.9149 7.15927 16.3638L0.972456 22.5506C0.442599 23.0805 0.182323 23.8225 0.265073 24.5672L0.65185 28.0482C0.693086 28.4193 0.8594 28.7654 1.12344 29.0294L1.47046 29.3764C1.7345 29.6405 2.08054 29.8068 2.45166 29.848L5.93264 30.2348C6.67739 30.3175 7.41937 30.0573 7.94923 29.5274L9.13261 28.344L6.22236 25.4656C5.73153 24.9801 5.72717 24.1887 6.21264 23.6979C6.6981 23.207 7.48955 23.2027 7.98038 23.6881L10.9004 26.5762L14.1365 23.3401C14.5854 22.8912 15.2499 22.7514 15.8648 22.9093C19.6772 23.8884 23.8935 22.8854 26.8785 19.9005ZM16.2263 9.55952C17.528 8.25777 19.6386 8.25777 20.9403 9.55952C22.2421 10.8613 22.2421 12.9718 20.9403 14.2736C19.6386 15.5753 17.528 15.5753 16.2263 14.2736C14.9245 12.9718 14.9245 10.8613 16.2263 9.55952Z" fill="#1A1528"/>
</svg>
