<svg width="20" height="21" viewBox="0 0 20 21" fill="none" xmlns="http://www.w3.org/2000/svg">
<path d="M10 0.895874C11.0701 0.895874 11.9375 1.76332 11.9375 2.83337V8.64594L17.75 8.64594C18.8201 8.64594 19.6875 9.51338 19.6875 10.5834C19.6875 11.6535 18.8201 12.5209 17.75 12.5209L11.9375 12.5209V18.3334C11.9375 19.4034 11.0701 20.2709 10 20.2709C8.92995 20.2709 8.0625 19.4034 8.0625 18.3334V12.5209H2.25C1.17995 12.5209 0.3125 11.6535 0.3125 10.5834C0.3125 9.51339 1.17995 8.64594 2.25 8.64594H8.0625V2.83337C8.0625 1.76332 8.92995 0.895874 10 0.895874Z" fill="#1A1528"/>
</svg>
