<svg width="16" height="19" viewBox="0 0 16 19" fill="none" xmlns="http://www.w3.org/2000/svg">
<g clip-path="url(#clip0_1_648)">
<circle cx="11.7029" cy="4.05037" r="0.617143" fill="#FFCE48"/>
</g>
<g clip-path="url(#clip1_1_648)">
<circle cx="13.184" cy="4.0504" r="0.617143" fill="#FFCE48"/>
</g>
<g clip-path="url(#clip2_1_648)">
<circle cx="14.665" cy="4.0504" r="0.617143" fill="#FFCE48"/>
</g>
<g clip-path="url(#clip3_1_648)">
<circle cx="13.184" cy="5.53145" r="0.617143" fill="#FFCE48"/>
</g>
<g clip-path="url(#clip4_1_648)">
<circle cx="14.665" cy="5.53145" r="0.617143" fill="#FFCE48"/>
</g>
<g clip-path="url(#clip5_1_648)">
<circle cx="4.29718" cy="1.08817" r="0.617143" fill="#FFCE48"/>
</g>
<g clip-path="url(#clip6_1_648)">
<circle cx="5.77819" cy="1.08821" r="0.617143" fill="#FFCE48"/>
</g>
<g clip-path="url(#clip7_1_648)">
<circle cx="7.25945" cy="1.08821" r="0.617143" fill="#FFCE48"/>
</g>
<g clip-path="url(#clip8_1_648)">
<circle cx="8.74058" cy="1.08821" r="0.617143" fill="#FFCE48"/>
</g>
<g clip-path="url(#clip9_1_648)">
<circle cx="10.2218" cy="1.08821" r="0.617143" fill="#FFCE48"/>
</g>
<g clip-path="url(#clip10_1_648)">
<circle cx="11.7029" cy="1.08821" r="0.617143" fill="#FFCE48"/>
</g>
<g clip-path="url(#clip11_1_648)">
<circle cx="4.29716" cy="2.56917" r="0.617143" fill="#FFCE48"/>
</g>
<g clip-path="url(#clip12_1_648)">
<circle cx="5.77818" cy="2.56914" r="0.617143" fill="#FFCE48"/>
</g>
<g clip-path="url(#clip13_1_648)">
<circle cx="7.25943" cy="2.56914" r="0.617143" fill="#FFCE48"/>
</g>
<g clip-path="url(#clip14_1_648)">
<circle cx="8.74057" cy="2.56914" r="0.617143" fill="#FFCE48"/>
</g>
<g clip-path="url(#clip15_1_648)">
<circle cx="10.2218" cy="2.56914" r="0.617143" fill="#FFCE48"/>
</g>
<g clip-path="url(#clip16_1_648)">
<circle cx="11.7029" cy="2.56914" r="0.617143" fill="#FFCE48"/>
</g>
<g clip-path="url(#clip17_1_648)">
<circle cx="13.1839" cy="2.56914" r="0.617143" fill="#FFCE48"/>
</g>
<g clip-path="url(#clip18_1_648)">
<circle cx="2.81607" cy="15.8994" r="0.617143" fill="#FFCE48"/>
</g>
<g clip-path="url(#clip19_1_648)">
<circle cx="4.29709" cy="15.8994" r="0.617143" fill="#FFCE48"/>
</g>
<g clip-path="url(#clip20_1_648)">
<circle cx="5.77829" cy="15.8994" r="0.617143" fill="#FFCE48"/>
</g>
<g clip-path="url(#clip21_1_648)">
<circle cx="7.25951" cy="15.8994" r="0.617143" fill="#FFCE48"/>
</g>
<g clip-path="url(#clip22_1_648)">
<circle cx="8.74068" cy="15.8994" r="0.617143" fill="#FFCE48"/>
</g>
<g clip-path="url(#clip23_1_648)">
<circle cx="10.2217" cy="15.8994" r="0.617143" fill="#FFCE48"/>
</g>
<g clip-path="url(#clip24_1_648)">
<circle cx="11.7029" cy="15.8994" r="0.617143" fill="#FFCE48"/>
</g>
<g clip-path="url(#clip25_1_648)">
<circle cx="4.29709" cy="17.3805" r="0.617143" fill="#FFCE48"/>
</g>
<g clip-path="url(#clip26_1_648)">
<circle cx="5.77828" cy="17.3805" r="0.617143" fill="#FFCE48"/>
</g>
<g clip-path="url(#clip27_1_648)">
<circle cx="7.25945" cy="17.3805" r="0.617143" fill="#FFCE48"/>
</g>
<g clip-path="url(#clip28_1_648)">
<circle cx="8.74067" cy="17.3805" r="0.617143" fill="#FFCE48"/>
</g>
<g clip-path="url(#clip29_1_648)">
<circle cx="10.2217" cy="17.3805" r="0.617143" fill="#FFCE48"/>
</g>
<g clip-path="url(#clip30_1_648)">
<circle cx="11.7029" cy="17.3805" r="0.617143" fill="#FFCE48"/>
</g>
<g clip-path="url(#clip31_1_648)">
<circle cx="1.33495" cy="12.9373" r="0.617143" fill="#FFCE48"/>
</g>
<g clip-path="url(#clip32_1_648)">
<circle cx="2.81608" cy="12.9372" r="0.617143" fill="#FFCE48"/>
</g>
<g clip-path="url(#clip33_1_648)">
<circle cx="1.33488" cy="14.4184" r="0.617143" fill="#FFCE48"/>
</g>
<g clip-path="url(#clip34_1_648)">
<circle cx="2.81609" cy="14.4185" r="0.617143" fill="#FFCE48"/>
</g>
<g clip-path="url(#clip35_1_648)">
<circle cx="4.29718" cy="8.49385" r="0.617143" fill="#FFCE48"/>
</g>
<g clip-path="url(#clip36_1_648)">
<circle cx="5.77819" cy="8.49385" r="0.617143" fill="#FFCE48"/>
</g>
<g clip-path="url(#clip37_1_648)">
<circle cx="7.25945" cy="8.49385" r="0.617143" fill="#FFCE48"/>
</g>
<g clip-path="url(#clip38_1_648)">
<circle cx="8.74058" cy="8.49385" r="0.617143" fill="#FFCE48"/>
</g>
<g clip-path="url(#clip39_1_648)">
<circle cx="10.2218" cy="8.49385" r="0.617143" fill="#FFCE48"/>
</g>
<g clip-path="url(#clip40_1_648)">
<circle cx="11.7029" cy="8.49385" r="0.617143" fill="#FFCE48"/>
</g>
<g clip-path="url(#clip41_1_648)">
<circle cx="4.29716" cy="9.97502" r="0.617143" fill="#FFCE48"/>
</g>
<g clip-path="url(#clip42_1_648)">
<circle cx="5.77818" cy="9.97508" r="0.617143" fill="#FFCE48"/>
</g>
<g clip-path="url(#clip43_1_648)">
<circle cx="7.25943" cy="9.97508" r="0.617143" fill="#FFCE48"/>
</g>
<g clip-path="url(#clip44_1_648)">
<circle cx="8.74057" cy="9.97508" r="0.617143" fill="#FFCE48"/>
</g>
<g clip-path="url(#clip45_1_648)">
<circle cx="10.2218" cy="9.97508" r="0.617143" fill="#FFCE48"/>
</g>
<g clip-path="url(#clip46_1_648)">
<circle cx="11.7029" cy="9.97508" r="0.617143" fill="#FFCE48"/>
</g>
<g clip-path="url(#clip47_1_648)">
<circle cx="1.33488" cy="4.05034" r="0.617143" fill="#FFCE48"/>
</g>
<g clip-path="url(#clip48_1_648)">
<circle cx="1.33498" cy="5.53142" r="0.617143" fill="#FFCE48"/>
</g>
<g clip-path="url(#clip49_1_648)">
<circle cx="1.33498" cy="7.01253" r="0.617143" fill="#FFCE48"/>
</g>
<g clip-path="url(#clip50_1_648)">
<circle cx="2.81608" cy="2.56909" r="0.617143" fill="#FFCE48"/>
</g>
<g clip-path="url(#clip51_1_648)">
<circle cx="2.81608" cy="4.05031" r="0.617143" fill="#FFCE48"/>
</g>
<g clip-path="url(#clip52_1_648)">
<circle cx="2.81608" cy="5.53139" r="0.617143" fill="#FFCE48"/>
</g>
<g clip-path="url(#clip53_1_648)">
<circle cx="2.81608" cy="7.01247" r="0.617143" fill="#FFCE48"/>
</g>
<g clip-path="url(#clip54_1_648)">
<circle cx="2.81608" cy="8.49379" r="0.617143" fill="#FFCE48"/>
</g>
<g clip-path="url(#clip55_1_648)">
<circle cx="13.1839" cy="9.97499" r="0.617143" fill="#FFCE48"/>
</g>
<g clip-path="url(#clip56_1_648)">
<circle cx="13.1839" cy="11.456" r="0.617143" fill="#FFCE48"/>
</g>
<g clip-path="url(#clip57_1_648)">
<circle cx="13.1839" cy="12.9373" r="0.617143" fill="#FFCE48"/>
</g>
<g clip-path="url(#clip58_1_648)">
<circle cx="13.1839" cy="14.4185" r="0.617143" fill="#FFCE48"/>
</g>
<g clip-path="url(#clip59_1_648)">
<circle cx="13.1839" cy="15.8995" r="0.617143" fill="#FFCE48"/>
</g>
<g clip-path="url(#clip60_1_648)">
<circle cx="14.6651" cy="11.456" r="0.617143" fill="#FFCE48"/>
</g>
<g clip-path="url(#clip61_1_648)">
<circle cx="14.665" cy="12.9372" r="0.617143" fill="#FFCE48"/>
</g>
<g clip-path="url(#clip62_1_648)">
<circle cx="14.665" cy="14.4183" r="0.617143" fill="#FFCE48"/>
</g>
<defs>
<clipPath id="clip0_1_648">
<rect width="1.48114" height="1.48114" fill="white" transform="translate(10.9623 3.30975)"/>
</clipPath>
<clipPath id="clip1_1_648">
<rect width="1.48114" height="1.48114" fill="white" transform="translate(12.4434 3.30978)"/>
</clipPath>
<clipPath id="clip2_1_648">
<rect width="1.48114" height="1.48114" fill="white" transform="translate(13.9245 3.30978)"/>
</clipPath>
<clipPath id="clip3_1_648">
<rect width="1.48114" height="1.48114" fill="white" transform="translate(12.4434 4.79089)"/>
</clipPath>
<clipPath id="clip4_1_648">
<rect width="1.48114" height="1.48114" fill="white" transform="translate(13.9245 4.79089)"/>
</clipPath>
<clipPath id="clip5_1_648">
<rect width="1.48114" height="1.48114" fill="white" transform="translate(3.55658 0.347504)"/>
</clipPath>
<clipPath id="clip6_1_648">
<rect width="1.48114" height="1.48114" fill="white" transform="translate(5.03769 0.347549)"/>
</clipPath>
<clipPath id="clip7_1_648">
<rect width="1.48114" height="1.48114" fill="white" transform="translate(6.51882 0.347549)"/>
</clipPath>
<clipPath id="clip8_1_648">
<rect width="1.48114" height="1.48114" fill="white" transform="translate(8.00003 0.347549)"/>
</clipPath>
<clipPath id="clip9_1_648">
<rect width="1.48114" height="1.48114" fill="white" transform="translate(9.48116 0.347549)"/>
</clipPath>
<clipPath id="clip10_1_648">
<rect width="1.48114" height="1.48114" fill="white" transform="translate(10.9623 0.347549)"/>
</clipPath>
<clipPath id="clip11_1_648">
<rect width="1.48114" height="1.48114" fill="white" transform="translate(3.55656 1.82867)"/>
</clipPath>
<clipPath id="clip12_1_648">
<rect width="1.48114" height="1.48114" fill="white" transform="translate(5.03768 1.82864)"/>
</clipPath>
<clipPath id="clip13_1_648">
<rect width="1.48114" height="1.48114" fill="white" transform="translate(6.5188 1.82864)"/>
</clipPath>
<clipPath id="clip14_1_648">
<rect width="1.48114" height="1.48114" fill="white" transform="translate(8.00001 1.82864)"/>
</clipPath>
<clipPath id="clip15_1_648">
<rect width="1.48114" height="1.48114" fill="white" transform="translate(9.48114 1.82864)"/>
</clipPath>
<clipPath id="clip16_1_648">
<rect width="1.48114" height="1.48114" fill="white" transform="translate(10.9623 1.82864)"/>
</clipPath>
<clipPath id="clip17_1_648">
<rect width="1.48114" height="1.48114" fill="white" transform="translate(12.4434 1.82864)"/>
</clipPath>
<clipPath id="clip18_1_648">
<rect width="1.48114" height="1.48114" fill="white" transform="translate(2.07545 15.1589)"/>
</clipPath>
<clipPath id="clip19_1_648">
<rect width="1.48114" height="1.48114" fill="white" transform="translate(3.55658 15.1589)"/>
</clipPath>
<clipPath id="clip20_1_648">
<rect width="1.48114" height="1.48114" fill="white" transform="translate(5.03771 15.1589)"/>
</clipPath>
<clipPath id="clip21_1_648">
<rect width="1.48114" height="1.48114" fill="white" transform="translate(6.51892 15.1589)"/>
</clipPath>
<clipPath id="clip22_1_648">
<rect width="1.48114" height="1.48114" fill="white" transform="translate(8.00004 15.1589)"/>
</clipPath>
<clipPath id="clip23_1_648">
<rect width="1.48114" height="1.48114" fill="white" transform="translate(9.48117 15.1589)"/>
</clipPath>
<clipPath id="clip24_1_648">
<rect width="1.48114" height="1.48114" fill="white" transform="translate(10.9623 15.1589)"/>
</clipPath>
<clipPath id="clip25_1_648">
<rect width="1.48114" height="1.48114" fill="white" transform="translate(3.55658 16.64)"/>
</clipPath>
<clipPath id="clip26_1_648">
<rect width="1.48114" height="1.48114" fill="white" transform="translate(5.03769 16.64)"/>
</clipPath>
<clipPath id="clip27_1_648">
<rect width="1.48114" height="1.48114" fill="white" transform="translate(6.51882 16.64)"/>
</clipPath>
<clipPath id="clip28_1_648">
<rect width="1.48114" height="1.48114" fill="white" transform="translate(8.00003 16.64)"/>
</clipPath>
<clipPath id="clip29_1_648">
<rect width="1.48114" height="1.48114" fill="white" transform="translate(9.48116 16.64)"/>
</clipPath>
<clipPath id="clip30_1_648">
<rect width="1.48114" height="1.48114" fill="white" transform="translate(10.9623 16.64)"/>
</clipPath>
<clipPath id="clip31_1_648">
<rect width="1.48114" height="1.48114" fill="white" transform="translate(0.594328 12.1967)"/>
</clipPath>
<clipPath id="clip32_1_648">
<rect width="1.48114" height="1.48114" fill="white" transform="translate(2.07547 12.1967)"/>
</clipPath>
<clipPath id="clip33_1_648">
<rect width="1.48114" height="1.48114" fill="white" transform="translate(0.594341 13.6778)"/>
</clipPath>
<clipPath id="clip34_1_648">
<rect width="1.48114" height="1.48114" fill="white" transform="translate(2.07548 13.6778)"/>
</clipPath>
<clipPath id="clip35_1_648">
<rect width="1.48114" height="1.48114" fill="white" transform="translate(3.55658 7.75323)"/>
</clipPath>
<clipPath id="clip36_1_648">
<rect width="1.48114" height="1.48114" fill="white" transform="translate(5.03769 7.75323)"/>
</clipPath>
<clipPath id="clip37_1_648">
<rect width="1.48114" height="1.48114" fill="white" transform="translate(6.51882 7.75323)"/>
</clipPath>
<clipPath id="clip38_1_648">
<rect width="1.48114" height="1.48114" fill="white" transform="translate(8.00003 7.75323)"/>
</clipPath>
<clipPath id="clip39_1_648">
<rect width="1.48114" height="1.48114" fill="white" transform="translate(9.48116 7.75323)"/>
</clipPath>
<clipPath id="clip40_1_648">
<rect width="1.48114" height="1.48114" fill="white" transform="translate(10.9623 7.75323)"/>
</clipPath>
<clipPath id="clip41_1_648">
<rect width="1.48114" height="1.48114" fill="white" transform="translate(3.55656 9.23438)"/>
</clipPath>
<clipPath id="clip42_1_648">
<rect width="1.48114" height="1.48114" fill="white" transform="translate(5.03768 9.23444)"/>
</clipPath>
<clipPath id="clip43_1_648">
<rect width="1.48114" height="1.48114" fill="white" transform="translate(6.5188 9.23444)"/>
</clipPath>
<clipPath id="clip44_1_648">
<rect width="1.48114" height="1.48114" fill="white" transform="translate(8.00001 9.23444)"/>
</clipPath>
<clipPath id="clip45_1_648">
<rect width="1.48114" height="1.48114" fill="white" transform="translate(9.48114 9.23444)"/>
</clipPath>
<clipPath id="clip46_1_648">
<rect width="1.48114" height="1.48114" fill="white" transform="translate(10.9623 9.23444)"/>
</clipPath>
<clipPath id="clip47_1_648">
<rect width="1.48114" height="1.48114" fill="white" transform="translate(0.594341 3.30972)"/>
</clipPath>
<clipPath id="clip48_1_648">
<rect width="1.48114" height="1.48114" fill="white" transform="translate(0.594355 4.79086)"/>
</clipPath>
<clipPath id="clip49_1_648">
<rect width="1.48114" height="1.48114" fill="white" transform="translate(0.594355 6.272)"/>
</clipPath>
<clipPath id="clip50_1_648">
<rect width="1.48114" height="1.48114" fill="white" transform="translate(2.07547 1.8286)"/>
</clipPath>
<clipPath id="clip51_1_648">
<rect width="1.48114" height="1.48114" fill="white" transform="translate(2.07547 3.30969)"/>
</clipPath>
<clipPath id="clip52_1_648">
<rect width="1.48114" height="1.48114" fill="white" transform="translate(2.07547 4.79083)"/>
</clipPath>
<clipPath id="clip53_1_648">
<rect width="1.48114" height="1.48114" fill="white" transform="translate(2.07547 6.27194)"/>
</clipPath>
<clipPath id="clip54_1_648">
<rect width="1.48114" height="1.48114" fill="white" transform="translate(2.07547 7.75317)"/>
</clipPath>
<clipPath id="clip55_1_648">
<rect width="1.48114" height="1.48114" fill="white" transform="translate(12.4434 9.23434)"/>
</clipPath>
<clipPath id="clip56_1_648">
<rect width="1.48114" height="1.48114" fill="white" transform="translate(12.4434 10.7155)"/>
</clipPath>
<clipPath id="clip57_1_648">
<rect width="1.48114" height="1.48114" fill="white" transform="translate(12.4434 12.1967)"/>
</clipPath>
<clipPath id="clip58_1_648">
<rect width="1.48114" height="1.48114" fill="white" transform="translate(12.4434 13.6779)"/>
</clipPath>
<clipPath id="clip59_1_648">
<rect width="1.48114" height="1.48114" fill="white" transform="translate(12.4434 15.159)"/>
</clipPath>
<clipPath id="clip60_1_648">
<rect width="1.48114" height="1.48114" fill="white" transform="translate(13.9245 10.7155)"/>
</clipPath>
<clipPath id="clip61_1_648">
<rect width="1.48114" height="1.48114" fill="white" transform="translate(13.9245 12.1966)"/>
</clipPath>
<clipPath id="clip62_1_648">
<rect width="1.48114" height="1.48114" fill="white" transform="translate(13.9245 13.6777)"/>
</clipPath>
</defs>
</svg>
