<svg width="28" height="28" viewBox="0 0 28 28" fill="none" xmlns="http://www.w3.org/2000/svg">
<circle cx="12.8333" cy="12.8334" r="10.5" stroke="#999999" stroke-width="1.75"/>
<path d="M25.4474 24.4705C25.3742 24.581 25.242 24.7132 24.9776 24.9776C24.7132 25.242 24.581 25.3742 24.4706 25.4473C23.8236 25.8758 22.9482 25.6549 22.5819 24.9708C22.5194 24.854 22.4657 24.6749 22.3584 24.3168C22.2411 23.9254 22.1825 23.7298 22.1712 23.5921C22.1044 22.7813 22.7813 22.1044 23.5921 22.1711C23.7298 22.1825 23.9255 22.2411 24.3168 22.3584C24.675 22.4657 24.8541 22.5193 24.9709 22.5819C25.655 22.9482 25.8758 23.8235 25.4474 24.4705Z" stroke="#999999" stroke-width="1.75" stroke-linecap="round"/>
</svg>
